<svg width="339" height="149" viewBox="0 0 339 149" fill="none" xmlns="http://www.w3.org/2000/svg">
<g clip-path="url(#clip0_1551_67)">
<path d="M458 -210H-142V390H458V-210Z" fill="white"/>
<path d="M458 -210H-142V390H458V-210Z" fill="white"/>
<mask id="mask0_1551_67" style="mask-type:luminance" maskUnits="userSpaceOnUse" x="72" y="20" width="171" height="71">
<path d="M72.7605 20.2761H242.761V90.2761H72.7605V20.2761Z" fill="white"/>
</mask>
<g mask="url(#mask0_1551_67)">
<path fill-rule="evenodd" clip-rule="evenodd" d="M79.3386 89.9481H112.271C112.271 89.9481 99.0938 77.7762 99.9115 68.6929C103.031 55.9793 116.208 57.2918 120.349 69.7137C122.224 75.3231 122.823 83.3179 122.958 89.9481H137.755C137.328 81.1877 137.599 71.2502 139.938 64.0731C146.037 45.4272 169.953 45.4272 176.052 64.0731C179.375 74.2345 171.964 83.2502 164.703 89.9481H197.636C185.396 62.1304 212.443 49.5522 216.313 69.7137C217.391 75.3231 216.859 83.3179 216.042 89.9481H229.302C230.141 85.4116 231.245 80.5366 232.693 76.9272C236.307 67.8075 240.5 69.12 240.5 69.12C240.5 69.12 241.932 68.7241 243.229 69.8856V64.5002C184.698 33.2397 132.214 32.745 72.7605 64.5158V69.9012C83.8751 64.2085 82.9532 81.7345 79.3386 89.9481ZM90.1459 36.1512C93.3334 36.1512 95.922 38.745 95.922 41.9325C95.922 45.12 93.3334 47.7085 90.1459 47.7085C86.9584 47.7085 84.3699 45.12 84.3699 41.9325C84.3699 38.745 86.9584 36.1512 90.1459 36.1512ZM225.828 36.1512C229.016 36.1512 231.604 38.745 231.604 41.9325C231.604 45.12 229.016 47.7085 225.828 47.7085C222.641 47.7085 220.047 45.12 220.047 41.9325C220.047 38.745 222.641 36.1512 225.828 36.1512ZM128.891 20.3179C133.375 20.3179 137.005 23.9481 137.005 28.4325C137.005 32.9168 133.375 36.547 128.891 36.547C124.406 36.547 120.776 32.9168 120.776 28.4325C120.776 23.9481 124.422 20.3179 128.891 20.3179ZM187.083 20.3179C191.563 20.3179 195.198 23.9481 195.198 28.4325C195.198 32.9168 191.563 36.547 187.083 36.547C182.599 36.547 178.969 32.9168 178.969 28.4325C178.969 23.9481 182.599 20.3179 187.083 20.3179Z" fill="#0CC0DF"/>
</g>
<path d="M30.46 131.583C28.1266 131.583 25.887 131.208 23.7516 130.458C21.611 129.708 19.9495 128.724 18.7725 127.5L20.085 124.938C21.2204 126.078 22.736 127 24.6266 127.708C26.512 128.406 28.46 128.75 30.46 128.75C33.2777 128.75 35.387 128.24 36.7933 127.208C38.21 126.167 38.9183 124.828 38.9183 123.188C38.9183 121.927 38.5329 120.917 37.7725 120.167C37.0068 119.417 36.0693 118.844 34.96 118.438C33.8454 118.037 32.3037 117.594 30.335 117.104C27.96 116.511 26.0693 115.932 24.6683 115.375C23.262 114.823 22.0537 113.979 21.0433 112.854C20.0433 111.719 19.5433 110.167 19.5433 108.208C19.5433 106.625 19.96 105.182 20.7933 103.875C21.637 102.573 22.9287 101.531 24.6683 100.75C26.4027 99.9741 28.5641 99.5835 31.1475 99.5835C32.9391 99.5835 34.6943 99.8335 36.4183 100.333C38.137 100.823 39.6318 101.5 40.8975 102.375L39.7725 105.021C38.4495 104.162 37.0433 103.516 35.5433 103.083C34.0433 102.641 32.5745 102.417 31.1475 102.417C28.3818 102.417 26.3037 102.953 24.9183 104.021C23.5277 105.078 22.835 106.448 22.835 108.125C22.835 109.391 23.2152 110.406 23.9808 111.167C24.7412 111.932 25.6995 112.516 26.8558 112.917C28.0068 113.323 29.5537 113.761 31.5016 114.229C33.8037 114.802 35.6683 115.365 37.085 115.917C38.512 116.474 39.7204 117.313 40.71 118.438C41.6943 119.563 42.1891 121.083 42.1891 123C42.1891 124.583 41.7568 126.031 40.8975 127.333C40.0485 128.641 38.7412 129.677 36.9808 130.438C35.2152 131.203 33.0433 131.583 30.46 131.583Z" fill="#151414"/>
<path d="M57.9109 129.875C57.3119 130.417 56.5671 130.834 55.6817 131.125C54.8067 131.401 53.8901 131.542 52.9317 131.542C50.7078 131.542 48.9942 130.948 47.7859 129.75C46.588 128.542 45.9942 126.849 45.9942 124.667V110.375H41.7859V107.667H45.9942V102.5H49.2026V107.667H56.3901V110.375H49.2026V124.479C49.2026 125.896 49.5463 126.974 50.2442 127.709C50.9526 128.433 51.963 128.792 53.2859 128.792C53.9369 128.792 54.5671 128.688 55.1817 128.479C55.8067 128.271 56.338 127.974 56.7859 127.584L57.9109 129.875Z" fill="#151414"/>
<path d="M81.7232 107.667V131.313H78.6607V127C77.8274 128.432 76.6711 129.552 75.2024 130.354C73.7441 131.146 72.067 131.542 70.1816 131.542C67.0826 131.542 64.6451 130.682 62.8691 128.958C61.0878 127.24 60.2024 124.708 60.2024 121.375V107.667H63.3899V121.063C63.3899 123.552 63.9993 125.438 65.2232 126.729C66.4576 128.021 68.2128 128.667 70.4941 128.667C72.9784 128.667 74.9368 127.912 76.3691 126.396C77.8118 124.885 78.5357 122.781 78.5357 120.083V107.667H81.7232Z" fill="#151414"/>
<path d="M108.946 97.9792V131.313H105.884V126.646C104.926 128.229 103.66 129.448 102.092 130.292C100.519 131.125 98.7432 131.542 96.7589 131.542C94.5505 131.542 92.5401 131.037 90.738 130.021C88.9464 128.995 87.5349 127.573 86.5089 125.75C85.4932 123.917 84.988 121.833 84.988 119.5C84.988 117.156 85.4932 115.073 86.5089 113.25C87.5349 111.417 88.9464 110 90.738 109C92.5401 108 94.5505 107.5 96.7589 107.5C98.6755 107.5 100.405 107.896 101.946 108.688C103.498 109.479 104.769 110.641 105.759 112.167V97.9792H108.946ZM97.0297 128.708C98.6807 128.708 100.176 128.328 101.509 127.563C102.842 126.802 103.889 125.719 104.655 124.313C105.415 122.896 105.801 121.292 105.801 119.5C105.801 117.698 105.415 116.094 104.655 114.688C103.889 113.287 102.842 112.203 101.509 111.438C100.176 110.677 98.6807 110.292 97.0297 110.292C95.363 110.292 93.863 110.677 92.5297 111.438C91.1964 112.203 90.1443 113.287 89.3839 114.688C88.6182 116.094 88.238 117.698 88.238 119.5C88.238 121.292 88.6182 122.896 89.3839 124.313C90.1443 125.719 91.1964 126.802 92.5297 127.563C93.863 128.328 95.363 128.708 97.0297 128.708Z" fill="#151414"/>
<path d="M135.123 120.479H115.352C115.529 122.938 116.477 124.927 118.186 126.438C119.894 127.953 122.05 128.709 124.665 128.709C126.134 128.709 127.483 128.448 128.706 127.917C129.925 127.391 130.988 126.62 131.894 125.604L133.686 127.667C132.644 128.933 131.331 129.896 129.748 130.563C128.175 131.219 126.456 131.542 124.581 131.542C122.149 131.542 119.998 131.031 118.123 130C116.248 128.959 114.779 127.531 113.727 125.709C112.686 123.875 112.165 121.808 112.165 119.5C112.165 117.198 112.665 115.125 113.665 113.292C114.675 111.459 116.061 110.037 117.811 109.021C119.561 108.011 121.529 107.5 123.727 107.5C125.904 107.5 127.863 108.011 129.602 109.021C131.337 110.037 132.696 111.453 133.686 113.271C134.686 115.078 135.186 117.156 135.186 119.5L135.123 120.479ZM123.727 110.229C121.446 110.229 119.529 110.959 117.977 112.417C116.436 113.875 115.561 115.771 115.352 118.104H132.123C131.915 115.771 131.04 113.875 129.498 112.417C127.956 110.959 126.029 110.229 123.727 110.229Z" fill="#151414"/>
<path d="M150.455 107.5C153.413 107.5 155.767 108.365 157.517 110.084C159.278 111.808 160.163 114.313 160.163 117.604V131.313H156.955V117.917C156.955 115.459 156.34 113.594 155.122 112.313C153.898 111.021 152.148 110.375 149.872 110.375C147.314 110.375 145.294 111.136 143.809 112.646C142.335 114.162 141.601 116.25 141.601 118.917V131.313H138.413V107.667H141.455V112.042C142.33 110.599 143.538 109.479 145.08 108.688C146.622 107.896 148.413 107.5 150.455 107.5Z" fill="#151414"/>
<path d="M177.983 129.875C177.384 130.417 176.639 130.834 175.754 131.125C174.879 131.401 173.962 131.542 173.004 131.542C170.78 131.542 169.066 130.948 167.858 129.75C166.66 128.542 166.066 126.849 166.066 124.667V110.375H161.858V107.667H166.066V102.5H169.275V107.667H176.462V110.375H169.275V124.479C169.275 125.896 169.618 126.974 170.316 127.709C171.025 128.433 172.035 128.792 173.358 128.792C174.009 128.792 174.639 128.688 175.254 128.479C175.879 128.271 176.41 127.974 176.858 127.584L177.983 129.875Z" fill="#151414"/>
<path d="M209.472 115.083C211.54 115.542 213.139 116.438 214.264 117.771C215.389 119.104 215.951 120.823 215.951 122.917C215.951 125.615 214.951 127.688 212.951 129.146C210.962 130.594 208.019 131.313 204.118 131.313H189.66V99.8542H203.222C206.733 99.8542 209.457 100.563 211.389 101.979C213.316 103.385 214.285 105.37 214.285 107.938C214.285 109.677 213.852 111.156 212.993 112.375C212.144 113.583 210.972 114.49 209.472 115.083ZM192.993 102.604V114.021H203.014C205.556 114.021 207.514 113.537 208.889 112.563C210.264 111.578 210.951 110.162 210.951 108.313C210.951 106.453 210.264 105.037 208.889 104.063C207.514 103.094 205.556 102.604 203.014 102.604H192.993ZM204.076 128.563C206.894 128.563 209.019 128.083 210.451 127.125C211.894 126.167 212.618 124.677 212.618 122.646C212.618 118.719 209.769 116.75 204.076 116.75H192.993V128.563H204.076Z" fill="#151414"/>
<path d="M222.625 112.313C223.375 110.719 224.49 109.516 225.98 108.709C227.464 107.906 229.297 107.5 231.48 107.5V110.604L230.709 110.542C228.219 110.542 226.276 111.308 224.875 112.834C223.469 114.365 222.771 116.511 222.771 119.271V131.313H219.584V107.667H222.625V112.313Z" fill="#151414"/>
<path d="M233.958 107.667H237.145V131.313H233.958V107.667ZM235.562 102.5C234.895 102.5 234.338 102.281 233.895 101.833C233.448 101.391 233.229 100.849 233.229 100.208C233.229 99.6147 233.448 99.0938 233.895 98.6459C234.338 98.2032 234.895 97.9792 235.562 97.9792C236.213 97.9792 236.76 98.198 237.208 98.6251C237.666 99.0574 237.895 99.573 237.895 100.167C237.895 100.833 237.666 101.391 237.208 101.833C236.76 102.281 236.213 102.5 235.562 102.5Z" fill="#151414"/>
<path d="M264.324 97.9792V131.313H261.262V126.646C260.303 128.229 259.038 129.448 257.47 130.292C255.897 131.125 254.121 131.542 252.137 131.542C249.928 131.542 247.918 131.037 246.116 130.021C244.324 128.995 242.913 127.573 241.887 125.75C240.871 123.917 240.366 121.833 240.366 119.5C240.366 117.156 240.871 115.073 241.887 113.25C242.913 111.417 244.324 110 246.116 109C247.918 108 249.928 107.5 252.137 107.5C254.053 107.5 255.783 107.896 257.324 108.688C258.876 109.479 260.147 110.641 261.137 112.167V97.9792H264.324ZM252.408 128.708C254.059 128.708 255.553 128.328 256.887 127.563C258.22 126.802 259.267 125.719 260.033 124.313C260.793 122.896 261.178 121.292 261.178 119.5C261.178 117.698 260.793 116.094 260.033 114.688C259.267 113.287 258.22 112.203 256.887 111.438C255.553 110.677 254.059 110.292 252.408 110.292C250.741 110.292 249.241 110.677 247.908 111.438C246.574 112.203 245.522 113.287 244.762 114.688C243.996 116.094 243.616 117.698 243.616 119.5C243.616 121.292 243.996 122.896 244.762 124.313C245.522 125.719 246.574 126.802 247.908 127.563C249.241 128.328 250.741 128.708 252.408 128.708Z" fill="#151414"/>
<path d="M291.814 107.667V128.438C291.814 132.448 290.824 135.422 288.855 137.354C286.897 139.281 283.944 140.25 280.001 140.25C277.803 140.25 275.73 139.922 273.772 139.271C271.814 138.63 270.215 137.75 268.98 136.625L270.605 134.188C271.741 135.198 273.126 135.99 274.751 136.563C276.387 137.13 278.105 137.417 279.897 137.417C282.897 137.417 285.095 136.719 286.501 135.334C287.918 133.943 288.626 131.776 288.626 128.834V125.834C287.637 127.334 286.34 128.474 284.73 129.25C283.132 130.031 281.361 130.417 279.418 130.417C277.194 130.417 275.173 129.933 273.355 128.959C271.548 127.99 270.126 126.625 269.085 124.875C268.053 123.115 267.543 121.125 267.543 118.917C267.543 116.698 268.053 114.719 269.085 112.979C270.126 111.245 271.543 109.896 273.335 108.938C275.137 107.979 277.168 107.5 279.418 107.5C281.418 107.5 283.22 107.906 284.835 108.709C286.46 109.516 287.762 110.683 288.751 112.209V107.667H291.814ZM279.73 127.584C281.439 127.584 282.98 127.219 284.355 126.479C285.73 125.745 286.798 124.719 287.564 123.396C288.324 122.078 288.71 120.584 288.71 118.917C288.71 117.24 288.324 115.745 287.564 114.438C286.798 113.136 285.736 112.12 284.376 111.396C283.012 110.662 281.465 110.292 279.73 110.292C278.022 110.292 276.486 110.656 275.126 111.375C273.762 112.084 272.699 113.099 271.939 114.417C271.173 115.74 270.793 117.24 270.793 118.917C270.793 120.584 271.173 122.078 271.939 123.396C272.699 124.719 273.762 125.745 275.126 126.479C276.486 127.219 278.022 127.584 279.73 127.584Z" fill="#151414"/>
<path d="M318.037 120.479H298.267C298.444 122.938 299.392 124.927 301.1 126.438C302.808 127.953 304.965 128.709 307.579 128.709C309.048 128.709 310.397 128.448 311.621 127.917C312.84 127.391 313.902 126.62 314.808 125.604L316.6 127.667C315.558 128.933 314.246 129.896 312.662 130.563C311.09 131.219 309.371 131.542 307.496 131.542C305.063 131.542 302.912 131.031 301.037 130C299.162 128.959 297.694 127.531 296.642 125.709C295.6 123.875 295.079 121.808 295.079 119.5C295.079 117.198 295.579 115.125 296.579 113.292C297.59 111.459 298.975 110.037 300.725 109.021C302.475 108.011 304.444 107.5 306.642 107.5C308.819 107.5 310.777 108.011 312.517 109.021C314.251 110.037 315.61 111.453 316.6 113.271C317.6 115.078 318.1 117.156 318.1 119.5L318.037 120.479ZM306.642 110.229C304.36 110.229 302.444 110.959 300.892 112.417C299.35 113.875 298.475 115.771 298.267 118.104H315.037C314.829 115.771 313.954 113.875 312.412 112.417C310.871 110.959 308.944 110.229 306.642 110.229Z" fill="#151414"/>
</g>
<defs>
<clipPath id="clip0_1551_67">
<rect width="500" height="500" fill="white" transform="translate(-92 -160)"/>
</clipPath>
</defs>
</svg>
