<svg width="55" height="55" viewBox="0 0 55 55" fill="none" xmlns="http://www.w3.org/2000/svg">
<circle cx="27.5" cy="27.5" r="27.5" fill="white"/>
<mask id="mask0_1555_12" style="mask-type:luminance" maskUnits="userSpaceOnUse" x="0" y="12" width="55" height="23">
<path d="M0 12H55V34.6471H0V12Z" fill="white"/>
</mask>
<g mask="url(#mask0_1555_12)">
<path fill-rule="evenodd" clip-rule="evenodd" d="M2.12822 34.5408H12.7828C12.7828 34.5408 8.51961 30.6029 8.78416 27.6642C9.79351 23.551 14.0567 23.9756 15.3963 27.9944C16.0029 29.8092 16.1967 32.3958 16.2405 34.5408H21.0277C20.8896 31.7066 20.9772 28.4915 21.7338 26.1695C23.707 20.137 31.4447 20.137 33.4179 26.1695C34.493 29.4571 32.0951 32.3739 29.7462 34.5408H40.4007C36.4409 25.541 45.1913 21.4716 46.4433 27.9944C46.7921 29.8092 46.6203 32.3958 46.3557 34.5408H50.6458C50.9171 33.0732 51.2744 31.496 51.7428 30.3282C52.9122 27.3777 54.2687 27.8023 54.2687 27.8023C54.2687 27.8023 54.7321 27.6743 55.1517 28.05V26.3077C36.2151 16.194 19.2348 16.034 0 26.3128V28.0551C3.5959 26.2133 3.29764 31.8835 2.12822 34.5408ZM5.62469 17.136C6.65594 17.136 7.49341 17.9751 7.49341 19.0064C7.49341 20.0376 6.65594 20.8751 5.62469 20.8751C4.59344 20.8751 3.75597 20.0376 3.75597 19.0064C3.75597 17.9751 4.59344 17.136 5.62469 17.136ZM49.5219 17.136C50.5532 17.136 51.3906 17.9751 51.3906 19.0064C51.3906 20.0376 50.5532 20.8751 49.5219 20.8751C48.4907 20.8751 47.6515 20.0376 47.6515 19.0064C47.6515 17.9751 48.4907 17.136 49.5219 17.136ZM18.1598 12.0134C19.6106 12.0134 20.7851 13.1879 20.7851 14.6387C20.7851 16.0896 19.6106 17.264 18.1598 17.264C16.7089 17.264 15.5345 16.0896 15.5345 14.6387C15.5345 13.1879 16.714 12.0134 18.1598 12.0134ZM36.9868 12.0134C38.436 12.0134 39.6121 13.1879 39.6121 14.6387C39.6121 16.0896 38.436 17.264 36.9868 17.264C35.536 17.264 34.3615 16.0896 34.3615 14.6387C34.3615 13.1879 35.536 12.0134 36.9868 12.0134Z" fill="#0CC0DF"/>
</g>
</svg>
