<svg width="334" height="122" viewBox="0 0 334 122" fill="none" xmlns="http://www.w3.org/2000/svg">
<mask id="mask0_1546_2" style="mask-type:luminance" maskUnits="userSpaceOnUse" x="78" y="2" width="171" height="71">
<path d="M78.7605 2.27612H248.761V72.2761H78.7605V2.27612Z" fill="white"/>
</mask>
<g mask="url(#mask0_1546_2)">
<path fill-rule="evenodd" clip-rule="evenodd" d="M85.3386 71.9481H118.271C118.271 71.9481 105.094 59.7762 105.912 50.6929C109.031 37.9793 122.208 39.2918 126.349 51.7137C128.224 57.3231 128.823 65.3179 128.958 71.9481H143.755C143.328 63.1877 143.599 53.2502 145.938 46.0731C152.037 27.4272 175.953 27.4272 182.052 46.0731C185.375 56.2345 177.964 65.2502 170.703 71.9481H203.636C191.396 44.1304 218.443 31.5522 222.313 51.7137C223.391 57.3231 222.859 65.3179 222.042 71.9481H235.302C236.141 67.4116 237.245 62.5366 238.693 58.9272C242.307 49.8075 246.5 51.12 246.5 51.12C246.5 51.12 247.932 50.7241 249.229 51.8856V46.5002C190.698 15.2397 138.214 14.745 78.7605 46.5158V51.9012C89.8751 46.2085 88.9532 63.7345 85.3386 71.9481ZM96.1459 18.1512C99.3334 18.1512 101.922 20.745 101.922 23.9325C101.922 27.12 99.3334 29.7085 96.1459 29.7085C92.9584 29.7085 90.3699 27.12 90.3699 23.9325C90.3699 20.745 92.9584 18.1512 96.1459 18.1512ZM231.828 18.1512C235.016 18.1512 237.604 20.745 237.604 23.9325C237.604 27.12 235.016 29.7085 231.828 29.7085C228.641 29.7085 226.047 27.12 226.047 23.9325C226.047 20.745 228.641 18.1512 231.828 18.1512ZM134.891 2.31787C139.375 2.31787 143.005 5.94808 143.005 10.4325C143.005 14.9168 139.375 18.547 134.891 18.547C130.406 18.547 126.776 14.9168 126.776 10.4325C126.776 5.94808 130.422 2.31787 134.891 2.31787ZM193.083 2.31787C197.563 2.31787 201.198 5.94808 201.198 10.4325C201.198 14.9168 197.563 18.547 193.083 18.547C188.599 18.547 184.969 14.9168 184.969 10.4325C184.969 5.94808 188.599 2.31787 193.083 2.31787Z" fill="#22C177"/>
</g>
<path d="M36.46 113.583C34.1266 113.583 31.887 113.208 29.7516 112.458C27.611 111.708 25.9495 110.724 24.7725 109.5L26.085 106.938C27.2204 108.078 28.736 109 30.6266 109.708C32.512 110.406 34.46 110.75 36.46 110.75C39.2777 110.75 41.387 110.24 42.7933 109.208C44.21 108.167 44.9183 106.828 44.9183 105.188C44.9183 103.927 44.5329 102.917 43.7725 102.167C43.0068 101.417 42.0693 100.844 40.96 100.438C39.8454 100.037 38.3037 99.5939 36.335 99.1043C33.96 98.5106 32.0693 97.9325 30.6683 97.3752C29.262 96.8231 28.0537 95.9793 27.0433 94.8543C26.0433 93.7189 25.5433 92.1668 25.5433 90.2085C25.5433 88.6252 25.96 87.1825 26.7933 85.8752C27.637 84.5731 28.9287 83.5314 30.6683 82.7502C32.4027 81.9741 34.5641 81.5835 37.1475 81.5835C38.9391 81.5835 40.6943 81.8335 42.4183 82.3335C44.137 82.8231 45.6318 83.5002 46.8975 84.3752L45.7725 87.021C44.4495 86.1616 43.0433 85.5158 41.5433 85.0835C40.0433 84.6408 38.5745 84.4168 37.1475 84.4168C34.3818 84.4168 32.3037 84.9533 30.9183 86.021C29.5277 87.0783 28.835 88.4481 28.835 90.1252C28.835 91.3908 29.2152 92.4064 29.9808 93.1668C30.7412 93.9325 31.6995 94.5158 32.8558 94.9168C34.0068 95.3231 35.5537 95.7606 37.5016 96.2293C39.8037 96.8022 41.6683 97.3647 43.085 97.9168C44.512 98.4741 45.7204 99.3127 46.71 100.438C47.6943 101.563 48.1891 103.083 48.1891 105C48.1891 106.583 47.7568 108.031 46.8975 109.333C46.0485 110.641 44.7412 111.677 42.9808 112.438C41.2152 113.203 39.0433 113.583 36.46 113.583Z" fill="#151414"/>
<path d="M63.9109 111.875C63.3119 112.417 62.5671 112.834 61.6817 113.125C60.8067 113.401 59.8901 113.542 58.9317 113.542C56.7078 113.542 54.9942 112.948 53.7859 111.75C52.588 110.542 51.9942 108.849 51.9942 106.667V92.3752H47.7859V89.6669H51.9942V84.5002H55.2026V89.6669H62.3901V92.3752H55.2026V106.479C55.2026 107.896 55.5463 108.974 56.2442 109.709C56.9526 110.433 57.963 110.792 59.2859 110.792C59.9369 110.792 60.5671 110.688 61.1817 110.479C61.8067 110.271 62.338 109.974 62.7859 109.584L63.9109 111.875Z" fill="#151414"/>
<path d="M87.7232 89.6667V113.313H84.6607V109C83.8274 110.432 82.6711 111.552 81.2024 112.354C79.7441 113.146 78.067 113.542 76.1816 113.542C73.0826 113.542 70.6451 112.682 68.8691 110.958C67.0878 109.24 66.2024 106.708 66.2024 103.375V89.6667H69.3899V103.063C69.3899 105.552 69.9993 107.438 71.2232 108.729C72.4576 110.021 74.2128 110.667 76.4941 110.667C78.9784 110.667 80.9368 109.912 82.3691 108.396C83.8118 106.885 84.5357 104.781 84.5357 102.083V89.6667H87.7232Z" fill="#151414"/>
<path d="M114.946 79.9792V113.313H111.884V108.646C110.926 110.229 109.66 111.448 108.092 112.292C106.519 113.125 104.743 113.542 102.759 113.542C100.551 113.542 98.5401 113.037 96.738 112.021C94.9464 110.995 93.5349 109.573 92.5089 107.75C91.4932 105.917 90.988 103.833 90.988 101.5C90.988 99.1563 91.4932 97.073 92.5089 95.2501C93.5349 93.4167 94.9464 92.0001 96.738 91.0001C98.5401 90.0001 100.551 89.5001 102.759 89.5001C104.676 89.5001 106.405 89.8959 107.946 90.6876C109.498 91.4792 110.769 92.6407 111.759 94.1667V79.9792H114.946ZM103.03 110.708C104.681 110.708 106.176 110.328 107.509 109.563C108.842 108.802 109.889 107.719 110.655 106.313C111.415 104.896 111.801 103.292 111.801 101.5C111.801 99.698 111.415 98.0938 110.655 96.6876C109.889 95.2865 108.842 94.2032 107.509 93.4376C106.176 92.6772 104.681 92.2917 103.03 92.2917C101.363 92.2917 99.863 92.6772 98.5297 93.4376C97.1964 94.2032 96.1443 95.2865 95.3839 96.6876C94.6182 98.0938 94.238 99.698 94.238 101.5C94.238 103.292 94.6182 104.896 95.3839 106.313C96.1443 107.719 97.1964 108.802 98.5297 109.563C99.863 110.328 101.363 110.708 103.03 110.708Z" fill="#151414"/>
<path d="M141.123 102.479H121.352C121.529 104.938 122.477 106.927 124.186 108.438C125.894 109.953 128.05 110.709 130.665 110.709C132.134 110.709 133.483 110.448 134.706 109.917C135.925 109.391 136.988 108.62 137.894 107.604L139.686 109.667C138.644 110.933 137.331 111.896 135.748 112.563C134.175 113.219 132.456 113.542 130.581 113.542C128.149 113.542 125.998 113.031 124.123 112C122.248 110.959 120.779 109.531 119.727 107.709C118.686 105.875 118.165 103.808 118.165 101.5C118.165 99.1982 118.665 97.1252 119.665 95.2919C120.675 93.4586 122.061 92.0367 123.811 91.0211C125.561 90.0107 127.529 89.5002 129.727 89.5002C131.904 89.5002 133.863 90.0107 135.602 91.0211C137.337 92.0367 138.696 93.4534 139.686 95.2711C140.686 97.0784 141.186 99.1565 141.186 101.5L141.123 102.479ZM129.727 92.2294C127.446 92.2294 125.529 92.9586 123.977 94.4169C122.436 95.8752 121.561 97.7711 121.352 100.104H138.123C137.915 97.7711 137.04 95.8752 135.498 94.4169C133.956 92.9586 132.029 92.2294 129.727 92.2294Z" fill="#151414"/>
<path d="M156.455 89.5002C159.413 89.5002 161.767 90.3648 163.517 92.0836C165.278 93.8075 166.163 96.3127 166.163 99.6044V113.313H162.955V99.9169C162.955 97.4586 162.34 95.594 161.122 94.3127C159.898 93.0211 158.148 92.3752 155.872 92.3752C153.314 92.3752 151.294 93.1357 149.809 94.6461C148.335 96.1617 147.601 98.2502 147.601 100.917V113.313H144.413V89.6669H147.455V94.0419C148.33 92.5992 149.538 91.4794 151.08 90.6877C152.622 89.8961 154.413 89.5002 156.455 89.5002Z" fill="#151414"/>
<path d="M183.983 111.875C183.384 112.417 182.639 112.834 181.754 113.125C180.879 113.401 179.962 113.542 179.004 113.542C176.78 113.542 175.066 112.948 173.858 111.75C172.66 110.542 172.066 108.849 172.066 106.667V92.3752H167.858V89.6669H172.066V84.5002H175.275V89.6669H182.462V92.3752H175.275V106.479C175.275 107.896 175.618 108.974 176.316 109.709C177.025 110.433 178.035 110.792 179.358 110.792C180.009 110.792 180.639 110.688 181.254 110.479C181.879 110.271 182.41 109.974 182.858 109.584L183.983 111.875Z" fill="#151414"/>
<path d="M215.472 97.0834C217.54 97.5417 219.139 98.4376 220.264 99.7709C221.389 101.104 221.951 102.823 221.951 104.917C221.951 107.615 220.951 109.688 218.951 111.146C216.962 112.594 214.019 113.313 210.118 113.313H195.66V81.8542H209.222C212.733 81.8542 215.457 82.5626 217.389 83.9792C219.316 85.3855 220.285 87.3699 220.285 89.9376C220.285 91.6772 219.852 93.1563 218.993 94.3751C218.144 95.5834 216.972 96.4897 215.472 97.0834ZM198.993 84.6042V96.0209H209.014C211.556 96.0209 213.514 95.5365 214.889 94.5626C216.264 93.5782 216.951 92.1615 216.951 90.3126C216.951 88.4532 216.264 87.0365 214.889 86.0626C213.514 85.0938 211.556 84.6042 209.014 84.6042H198.993ZM210.076 110.563C212.894 110.563 215.019 110.083 216.451 109.125C217.894 108.167 218.618 106.677 218.618 104.646C218.618 100.719 215.769 98.7501 210.076 98.7501H198.993V110.563H210.076Z" fill="#151414"/>
<path d="M228.625 94.3127C229.375 92.719 230.49 91.5159 231.98 90.7086C233.464 89.9065 235.297 89.5002 237.48 89.5002V92.6044L236.709 92.5419C234.219 92.5419 232.276 93.3075 230.875 94.8336C229.469 96.3648 228.771 98.5107 228.771 101.271V113.313H225.584V89.6669H228.625V94.3127Z" fill="#151414"/>
<path d="M239.958 89.6667H243.145V113.313H239.958V89.6667ZM241.562 84.5001C240.895 84.5001 240.338 84.2813 239.895 83.8334C239.448 83.3907 239.229 82.849 239.229 82.2084C239.229 81.6147 239.448 81.0938 239.895 80.6459C240.338 80.2032 240.895 79.9792 241.562 79.9792C242.213 79.9792 242.76 80.198 243.208 80.6251C243.666 81.0574 243.895 81.573 243.895 82.1667C243.895 82.8334 243.666 83.3907 243.208 83.8334C242.76 84.2813 242.213 84.5001 241.562 84.5001Z" fill="#151414"/>
<path d="M270.324 79.9792V113.313H267.262V108.646C266.303 110.229 265.038 111.448 263.47 112.292C261.897 113.125 260.121 113.542 258.137 113.542C255.928 113.542 253.918 113.037 252.116 112.021C250.324 110.995 248.913 109.573 247.887 107.75C246.871 105.917 246.366 103.833 246.366 101.5C246.366 99.1563 246.871 97.073 247.887 95.2501C248.913 93.4167 250.324 92.0001 252.116 91.0001C253.918 90.0001 255.928 89.5001 258.137 89.5001C260.053 89.5001 261.783 89.8959 263.324 90.6876C264.876 91.4792 266.147 92.6407 267.137 94.1667V79.9792H270.324ZM258.408 110.708C260.059 110.708 261.553 110.328 262.887 109.563C264.22 108.802 265.267 107.719 266.033 106.313C266.793 104.896 267.178 103.292 267.178 101.5C267.178 99.698 266.793 98.0938 266.033 96.6876C265.267 95.2865 264.22 94.2032 262.887 93.4376C261.553 92.6772 260.059 92.2917 258.408 92.2917C256.741 92.2917 255.241 92.6772 253.908 93.4376C252.574 94.2032 251.522 95.2865 250.762 96.6876C249.996 98.0938 249.616 99.698 249.616 101.5C249.616 103.292 249.996 104.896 250.762 106.313C251.522 107.719 252.574 108.802 253.908 109.563C255.241 110.328 256.741 110.708 258.408 110.708Z" fill="#151414"/>
<path d="M297.814 89.6669V110.438C297.814 114.448 296.824 117.422 294.855 119.354C292.897 121.281 289.944 122.25 286.001 122.25C283.803 122.25 281.73 121.922 279.772 121.271C277.814 120.63 276.215 119.75 274.98 118.625L276.605 116.188C277.741 117.198 279.126 117.99 280.751 118.563C282.387 119.13 284.105 119.417 285.897 119.417C288.897 119.417 291.095 118.719 292.501 117.334C293.918 115.943 294.626 113.776 294.626 110.834V107.834C293.637 109.334 292.34 110.474 290.73 111.25C289.132 112.031 287.361 112.417 285.418 112.417C283.194 112.417 281.173 111.933 279.355 110.959C277.548 109.99 276.126 108.625 275.085 106.875C274.053 105.115 273.543 103.125 273.543 100.917C273.543 98.6982 274.053 96.719 275.085 94.9794C276.126 93.245 277.543 91.8961 279.335 90.9377C281.137 89.9794 283.168 89.5002 285.418 89.5002C287.418 89.5002 289.22 89.9065 290.835 90.7086C292.46 91.5159 293.762 92.6825 294.751 94.2086V89.6669H297.814ZM285.73 109.584C287.439 109.584 288.98 109.219 290.355 108.479C291.73 107.745 292.798 106.719 293.564 105.396C294.324 104.078 294.71 102.584 294.71 100.917C294.71 99.2398 294.324 97.745 293.564 96.4377C292.798 95.1357 291.736 94.12 290.376 93.3961C289.012 92.6617 287.465 92.2919 285.73 92.2919C284.022 92.2919 282.486 92.6565 281.126 93.3752C279.762 94.0836 278.699 95.0992 277.939 96.4169C277.173 97.7398 276.793 99.2398 276.793 100.917C276.793 102.584 277.173 104.078 277.939 105.396C278.699 106.719 279.762 107.745 281.126 108.479C282.486 109.219 284.022 109.584 285.73 109.584Z" fill="#151414"/>
<path d="M324.037 102.479H304.267C304.444 104.938 305.392 106.927 307.1 108.438C308.808 109.953 310.965 110.709 313.579 110.709C315.048 110.709 316.397 110.448 317.621 109.917C318.84 109.391 319.902 108.62 320.808 107.604L322.6 109.667C321.558 110.933 320.246 111.896 318.662 112.563C317.09 113.219 315.371 113.542 313.496 113.542C311.063 113.542 308.912 113.031 307.037 112C305.162 110.959 303.694 109.531 302.642 107.709C301.6 105.875 301.079 103.808 301.079 101.5C301.079 99.1982 301.579 97.1252 302.579 95.2919C303.59 93.4586 304.975 92.0367 306.725 91.0211C308.475 90.0107 310.444 89.5002 312.642 89.5002C314.819 89.5002 316.777 90.0107 318.517 91.0211C320.251 92.0367 321.61 93.4534 322.6 95.2711C323.6 97.0784 324.1 99.1565 324.1 101.5L324.037 102.479ZM312.642 92.2294C310.36 92.2294 308.444 92.9586 306.892 94.4169C305.35 95.8752 304.475 97.7711 304.267 100.104H321.037C320.829 97.7711 319.954 95.8752 318.412 94.4169C316.871 92.9586 314.944 92.2294 312.642 92.2294Z" fill="#151414"/>
</svg>
